<?xml version="1.0" encoding="UTF-8"?>
<svg width="48.085mm" height="58.392mm" version="1.1" viewBox="0 0 48.085 58.392" xmlns="http://www.w3.org/2000/svg">
 <path d="m46.045 12.077h-19.873c0.78581-0.31829 1.4967-0.7993 2.0725-1.3951 1.1041-1.1311 1.788-2.7027 1.788-4.4162 0-1.7134-0.67733-3.2851-1.788-4.4162-1.1041-1.138-2.6485-1.8492-4.3553-1.8492-1.7 0-3.2512 0.7112-4.3553 1.8492-1.1041 1.1311-1.7881 2.7025-1.7881 4.4162 0 1.7137 0.67734 3.2851 1.7881 4.4162 0.58234 0.5961 1.2869 1.0771 2.0727 1.3951h-19.575c-1.1242 7e-3 -2.0251 0.90752-2.032 2.032v1.8965c0 0.55536 0.21008 1.0226 0.51488 1.3816s0.72469 0.64347 1.2734 0.74507h7e-3l13.879 2.4926-3.8134 35.594c-7e-3 0.0677-0.0135 0.14208-0.0135 0.2167 0 0.52149 0.20982 1.0295 0.57574 1.3885 0.35903 0.35904 0.87365 0.56885 1.3885 0.56885h1.3412c0.53499-7e-3 0.96176-0.18282 1.3274-0.43338 0.35904-0.25744 0.67045-0.60299 0.85328-1.1041l6.6921-18.918 6.6921 18.918c0.18283 0.50112 0.49451 0.84667 0.85355 1.1041 0.35903 0.25056 0.79242 0.43338 1.3277 0.43338h1.3412c0.51488 0 1.0295-0.2032 1.3885-0.56885 0.36565-0.35904 0.57573-0.86704 0.56885-1.3816 0-0.0812-7e-3 -0.16246-0.0135-0.24395l-0.0135-0.0947-4.2468-35.418 14.373-2.5469c0.54848-0.1016 0.96864-0.38603 1.2734-0.74506 0.3048-0.35904 0.508-0.8263 0.51488-1.3817v-1.8965c-0.0135-1.138-0.90752-2.032-2.0389-2.0389zm-24.56-3.2851c-0.62309-0.64347-1.016-1.5306-1.016-2.5265s0.39291-1.883 1.016-2.5265c0.62998-0.64346 1.4698-1.0295 2.4114-1.0295 0.94165 0 1.7814 0.38603 2.4114 1.0295 0.62309 0.64347 1.016 1.5306 1.016 2.5265s-0.39291 1.883-1.016 2.5265c-0.62997 0.64346-1.4698 1.0295-2.4114 1.0295-0.94139-7e-3 -1.7814-0.39291-2.4114-1.0295zm23.883 6.753-14.515 2.5739c-0.508 0.0881-0.93478 0.36566-1.2327 0.71782-0.2913 0.35904-0.48075 0.8128-0.48075 1.3208 0 0.0812 7e-3 0.16272 0.0135 0.24368l4.2267 35.269h-0.20982l-7.6404-21.614c-0.0744-0.19659-0.16245-0.4064-0.36565-0.63659-0.1016-0.11509-0.23707-0.24394-0.43339-0.34528-0.18971-0.10848-0.44715-0.18283-0.7112-0.18283-0.26406 0-0.5215 0.0744-0.70432 0.18283-0.29131 0.16246-0.44688 0.35216-0.56224 0.51488-0.1151 0.16933-0.17595 0.31829-0.23045 0.46752l-7.6539 21.62h-0.23045l3.7997-35.343c7e-3 -0.0743 0.0135-0.14208 0.0135-0.21669 0-0.51462-0.1897-0.96864-0.48075-1.3274-0.29818-0.35904-0.71781-0.62997-1.2327-0.72469l-14.014-2.513v-0.76544h42.645v0.75856z" fill="#5f666c" stroke-width=".26458"/>
</svg>
