<?xml version="1.0" encoding="UTF-8" standalone="no"?>
<svg
   version="1.1"
   x="0px"
   y="0px"
   viewBox="0 0 100 125"
   style="enable-background:new 0 0 100 100;"
   xml:space="preserve"
   id="svg492"
   sodipodi:docname="noun-arm-2559033.svg"
   inkscape:export-filename="noun-arm.svg"
   inkscape:export-xdpi="15.701328"
   inkscape:export-ydpi="15.701328"
   inkscape:version="1.2.2 (b0a8486, 2022-12-01)"
   xmlns:inkscape="http://www.inkscape.org/namespaces/inkscape"
   xmlns:sodipodi="http://sodipodi.sourceforge.net/DTD/sodipodi-0.dtd"
   xmlns="http://www.w3.org/2000/svg"
   xmlns:svg="http://www.w3.org/2000/svg"><defs
     id="defs496" /><sodipodi:namedview
     id="namedview494"
     pagecolor="#ffffff"
     bordercolor="#000000"
     borderopacity="0.25"
     inkscape:showpageshadow="2"
     inkscape:pageopacity="0.0"
     inkscape:pagecheckerboard="0"
     inkscape:deskcolor="#d1d1d1"
     showgrid="false"
     inkscape:zoom="6.456"
     inkscape:cx="43.757745"
     inkscape:cy="55.21995"
     inkscape:window-width="1920"
     inkscape:window-height="1016"
     inkscape:window-x="0"
     inkscape:window-y="27"
     inkscape:window-maximized="1"
     inkscape:current-layer="svg492" /><g
     id="g486"
     style="fill:#ffffff;fill-opacity:1"
     inkscape:export-filename="bicep.png"
     inkscape:export-xdpi="15.701328"
     inkscape:export-ydpi="15.701328"><g
       id="g468"
       style="fill:#ffffff;fill-opacity:1"><path
         d="M27.4,76.9c-0.2,0-0.4,0-0.5-0.1c-0.6-0.3-0.9-1-0.6-1.7c1.8-3.7,4.8-6.3,4.9-6.4    c7.5-6.2,18.7-7.3,27.3-2.6c0.6,0.3,0.8,1.1,0.5,1.7c-0.3,0.6-1.1,0.8-1.7,0.5c-7.7-4.2-17.7-3.3-24.5,2.3l0,0    c0,0-2.8,2.5-4.3,5.7C28.3,76.7,27.8,76.9,27.4,76.9z"
         id="path466"
         style="fill:#ffffff;fill-opacity:1" /></g><g
       id="g472"
       style="fill:#ffffff;fill-opacity:1"><path
         d="M55,67.1c-0.3,0-0.7-0.1-0.9-0.4c-0.5-0.5-0.4-1.3,0.1-1.8c4.4-4,9.5-7,14.7-8.8c0.6-0.2,14.3-5.1,29.3,2    c0.6,0.3,0.9,1,0.6,1.7c-0.3,0.6-1,0.9-1.7,0.6c-14.2-6.6-27.3-1.9-27.4-1.9c-4.9,1.7-9.7,4.6-13.8,8.3C55.6,67,55.3,67.1,55,67.1    z"
         id="path470"
         style="fill:#ffffff;fill-opacity:1" /></g><g
       id="g476"
       style="fill:#ffffff;fill-opacity:1"><path
         d="M30.7,67.1c-0.5,0-1-0.4-1.2-0.9c-2.7-9.6-2.4-18,1.3-29.2c1.4-4.3,3.9-8.3,7.4-11.9    c2.6-2.6,5-2.7,7.9-2.8c3.5-0.1,7.8-0.3,15.2-4.9c0.7-0.4,1.1-1.1,1.3-1.8l0.7-3.5c0.1-0.6-0.1-1.3-0.5-1.7    c-0.5-0.4-1.1-0.6-1.7-0.5l-0.4-1.2l0.3,1.2c-0.7,0.2-1.3-0.2-1.5-0.9c-0.2-0.7,0.2-1.3,0.9-1.5l0.1,0c1.4-0.3,2.9,0.1,3.9,1.1    c1.1,1,1.5,2.5,1.3,4l-0.7,3.5c-0.3,1.4-1.1,2.7-2.4,3.4c-8,5-12.9,5.1-16.5,5.2c-2.7,0.1-4.3,0.1-6.2,2    c-3.2,3.3-5.5,6.9-6.8,10.9c-3.5,10.6-3.8,18.7-1.2,27.7c0.2,0.7-0.2,1.3-0.9,1.5C30.9,67.1,30.8,67.1,30.7,67.1z"
         id="path474"
         style="fill:#ffffff;fill-opacity:1" /></g><g
       id="g480"
       style="fill:#ffffff;fill-opacity:1"><path
         d="M53.4,100c-18.3,0-35.5-2.2-42.5-4.5c-6.9-2.3-11-9.3-9.5-16.4c4.9-23.6,11-40.9,18.6-53    c2.3-3.7,5.2-7.2,8.5-10.5L42.1,1.9c1.5-1.5,3.5-2.2,5.6-1.9l13,1.8c0.8,0.1,1.5,0.5,1.9,1.2c0.4,0.7,0.6,1.5,0.4,2.2l-1.7,6.3    c-0.3,0.9-1,1.7-1.9,1.9l-5.4,1.6c-0.8,0.3-1.7,0.2-2.5-0.2c-0.8-0.4-1.3-1.1-1.6-1.9c-0.5-1.7,0.4-3.5,2.1-4l3-1    c0.7-0.2,1.4,0.1,1.6,0.8c0.2,0.7-0.1,1.4-0.8,1.6l-3,1c-0.4,0.1-0.6,0.6-0.5,1c0.1,0.2,0.2,0.4,0.4,0.5c0.2,0.1,0.4,0.1,0.6,0.1    l5.4-1.6c0.1,0,0.2-0.1,0.2-0.2l1.7-6.3c0-0.1,0-0.1,0-0.2c0,0-0.1-0.1-0.2-0.1l-13-1.8c-1.3-0.2-2.6,0.3-3.5,1.2L30.3,17.3    c-3.2,3.2-5.9,6.6-8.1,10.1C14.7,39.2,8.7,56.3,3.8,79.6C2.6,85.4,6,91.3,11.7,93.1c12.9,4.3,61,8.1,85.5-1.9    c0.6-0.3,1.4,0,1.6,0.7c0.3,0.6,0,1.4-0.7,1.6C86.4,98.3,69.5,100,53.4,100z"
         id="path478"
         style="fill:#ffffff;fill-opacity:1" /></g><g
       id="g484"
       style="fill:#ffffff;fill-opacity:1"><polygon
         points="55.7,8 55.8,7.4 54.7,7.3 55,8.2   "
         id="polygon482"
         style="fill:#ffffff;fill-opacity:1" /></g></g></svg>
