<svg xmlns="http://www.w3.org/2000/svg" xmlns:xlink="http://www.w3.org/1999/xlink" version="1.1" x="0px" y="0px" viewBox="0 0 100 125" enable-background="new 0 0 100 100" xml:space="preserve"><path d="M37.673,82.16c3.282,0,6.497-0.466,8.912-1.395c0.773-0.297,1.159-1.166,0.862-1.938c-0.298-0.774-1.169-1.157-1.938-0.862  c-4.174,1.605-11.407,1.596-16.128-0.02c-0.781-0.268-1.637,0.15-1.904,0.934c-0.269,0.785,0.149,1.637,0.934,1.906  C31.089,81.701,34.414,82.16,37.673,82.16z M66.344,25.593c-1.611-3.581-2.438-6.993-3.169-10.002  c-1.072-4.42-1.998-8.237-5.053-10.273c-2.014-1.341-4.856-1.043-8.455-0.666c-1.814,0.19-3.871,0.406-6.06,0.431  c-1.896,0.021-2.973,0.876-3.541,1.59c-1.175,1.473-1.411,3.775-0.736,7.02c-1.258,0.689-2.267,1.735-2.831,2.985  c-0.492,1.088-0.889,2.88,0.016,5.237c0.751,1.962,2.719,4.877,5.421,6.963c0.8,0.617,1.551,1.302,2.278,1.964  c2.125,1.937,4.318,3.935,7.979,4.649c2.091,5.819,1.382,10.511,0.696,15.056c-0.517,3.415-1.026,6.926-0.324,10.756  c-2.993-1.486-6.446-3.076-12.021-3.422c-11.033-0.684-20.584,6.27-20.984,6.566c-0.666,0.492-0.807,1.431-0.314,2.097  c0.491,0.666,1.43,0.808,2.097,0.316c0.09-0.066,9.074-6.601,19.017-5.985c5.291,0.328,8.392,1.875,11.392,3.373  c2.993,1.494,5.821,2.905,10.244,2.905c0.828,0,1.5-0.671,1.5-1.5s-0.672-1.5-1.5-1.5c-2.354,0-4.181-0.483-5.912-1.19  c-1.375-4.193-0.83-7.98-0.228-11.969c0.74-4.902,1.579-10.458-1.171-17.398c-0.201-0.507-0.662-0.864-1.203-0.935  c-3.278-0.421-5.118-2.097-7.248-4.037c-0.771-0.703-1.567-1.429-2.464-2.121c-2.229-1.722-3.871-4.142-4.454-5.662  c-0.428-1.118-0.456-2.103-0.083-2.928c0.166-0.367,0.394-0.662,0.637-0.909c0.322,1.673,0.979,3.338,3.062,3.851  c1.216,0.299,2.89,0.185,4.367,0.084c0.305-0.021,0.602-0.042,0.882-0.057c0.216-0.012,0.42-0.033,0.624-0.054  c-0.534,1.822-0.671,4.238,0.439,7.201c0.226,0.602,0.797,0.974,1.404,0.974c0.175,0,0.353-0.032,0.526-0.096  c0.775-0.291,1.169-1.155,0.878-1.931c-1.876-5.008,0.936-7.745,1.078-7.88c0.007-0.006,0.009-0.015,0.016-0.021  c0.054-0.056,0.114-0.107,0.164-0.164c0.698-0.803,1.034-1.824,0.947-2.878c-0.353-4.218-4.735-4.218-6.842-4.218  c-0.828,0-1.5,0.671-1.5,1.5s0.672,1.5,1.5,1.5c3.479,0,3.775,0.555,3.852,1.467c0.021,0.244-0.054,0.463-0.218,0.654  c-0.029,0.029-0.07,0.07-0.116,0.118c-0.314,0.278-1.097,0.731-2.921,0.832c-0.291,0.017-0.601,0.038-0.919,0.06  c-1.195,0.082-2.683,0.183-3.444-0.004c-0.557-0.138-0.738-0.617-1.022-2.702c-0.088-0.639-0.178-1.301-0.328-1.993  c-0.702-3.236-0.153-4.369,0.115-4.706c0.153-0.193,0.448-0.451,1.228-0.46c2.329-0.026,4.46-0.25,6.339-0.447  c2.879-0.302,5.366-0.563,6.479,0.178c2.079,1.386,2.839,4.519,3.802,8.485c0.761,3.136,1.623,6.69,3.348,10.525  c13.406,29.804,14.458,41.024,14.44,52.593c-0.007,4.84-4.04,6-10.192,7.219c-2.436,0.48-4.735,0.936-6.532,1.848  c-10.969,5.529-27.9,5.518-40.257-0.029c-0.754-0.34-1.645-0.002-1.982,0.754c-0.34,0.756-0.002,1.643,0.754,1.982  c6.65,2.986,14.368,4.479,21.913,4.479c7.57,0,14.966-1.503,20.927-4.51c1.431-0.725,3.533-1.141,5.76-1.581  c5.613-1.11,12.599-2.493,12.61-10.155C81.069,65.449,78.801,53.288,66.344,25.593z"/><text x="0" y="115" fill="#000000" font-size="5px" font-weight="bold" font-family="'Helvetica Neue', Helvetica, Arial-Unicode, Arial, Sans-serif">Created by Sergey Demushkin</text><text x="0" y="120" fill="#000000" font-size="5px" font-weight="bold" font-family="'Helvetica Neue', Helvetica, Arial-Unicode, Arial, Sans-serif">from the Noun Project</text></svg>