<svg xmlns="http://www.w3.org/2000/svg" xmlns:xlink="http://www.w3.org/1999/xlink" version="1.1" x="0px" y="0px" viewBox="0 0 100 125" style="enable-background:new 0 0 100 100;" xml:space="preserve"><g><g><path d="M70.4,38.8c-0.9,0-1.8-0.3-2.4-1l-2.4-2.4l-5.1-4.6c-0.5-0.4-0.5-1.1-0.1-1.6c0.4-0.5,1.1-0.5,1.6-0.1    l5.1,4.6l2.4,2.4c0.4,0.4,1.1,0.5,1.6,0.2l6.1-4c0.5-0.3,1.2-0.2,1.5,0.3c0.3,0.5,0.2,1.2-0.3,1.5l-6.1,4    C71.7,38.7,71.1,38.8,70.4,38.8z"/></g><g><path d="M29.9,38.8c-0.7,0-1.3-0.2-1.9-0.6l-6.1-4c-0.5-0.3-0.7-1-0.3-1.5c0.3-0.5,1-0.7,1.5-0.3l6.1,4    c0.5,0.3,1.1,0.3,1.6-0.2l2.4-2.4l5.2-4.6c0.5-0.4,1.2-0.4,1.6,0.1c0.4,0.5,0.4,1.2-0.1,1.6l-5.1,4.6l-2.3,2.3    C31.6,38.5,30.8,38.8,29.9,38.8z"/></g><g><path d="M65,97.9c-1.1,0-2.1-0.3-3.1-0.8c-1.4-0.8-2.5-2.2-2.9-3.8l-7.3-26.8c-0.2-0.6-0.7-1-1.4-1h-0.4    c-0.6,0-1.2,0.4-1.4,1l-7.3,26.8c-0.4,1.6-1.5,2.9-2.9,3.8c-1.4,0.8-3.1,1-4.7,0.6c-1.6-0.4-2.9-1.5-3.8-2.9    c-0.8-1.4-1-3.1-0.6-4.7l4.8-17.8c1.6-5.7,2.3-11.6,2.3-17.5l0-9.1L34,47.9c-1.1,1-2.8,1.2-4.1,0.4l-13-7.8    c-0.5-0.3-0.7-1-0.4-1.5c0.3-0.5,1-0.7,1.5-0.4l13,7.8c0.5,0.3,1.1,0.2,1.5-0.2l6.3-5.7l0,6.8v7.4c0,6.1-0.8,12.2-2.4,18.1    l-4.8,17.8c-0.3,1-0.1,2.1,0.4,3.1c0.5,0.9,1.4,1.6,2.4,1.9c1,0.3,2.1,0.1,3.1-0.4c0.9-0.5,1.6-1.4,1.9-2.4L46.5,66    c0.4-1.6,1.9-2.7,3.5-2.7h0.4c1.6,0,3.1,1.1,3.5,2.7l7.3,26.8c0.3,1,0.9,1.9,1.9,2.4c0.9,0.5,2,0.7,3.1,0.4c1-0.3,1.9-0.9,2.4-1.9    c0.5-0.9,0.7-2,0.4-3.1L64,72.8c-1.6-5.9-2.4-12-2.4-18.1l0-14.2l6.3,5.7c0.4,0.4,1,0.4,1.5,0.2l13-7.8c0.5-0.3,1.2-0.1,1.5,0.4    c0.3,0.5,0.1,1.2-0.4,1.5l-13,7.8c-1.3,0.8-3,0.6-4.1-0.4l-2.5-2.3l0,1.7v7.4c0,5.9,0.8,11.8,2.3,17.5L71,90    c0.4,1.6,0.2,3.3-0.6,4.7c-0.8,1.4-2.2,2.5-3.8,2.9C66.1,97.8,65.5,97.9,65,97.9z"/></g><g><path d="M50.4,29.1c-7.5,0-13.5-6.1-13.5-13.5c0-7.5,6.1-13.5,13.5-13.5c7.5,0,13.5,6.1,13.5,13.5    C63.9,23.1,57.8,29.1,50.4,29.1z M50.4,4.3C44.1,4.3,39,9.4,39,15.6s5.1,11.3,11.3,11.3c6.2,0,11.3-5.1,11.3-11.3    S56.6,4.3,50.4,4.3z"/></g><g><g><path d="M10.7,42.3c-0.2,0-0.4-0.1-0.6-0.2c-0.5-0.3-0.6-1-0.3-1.5L20,26c0.3-0.5,1-0.6,1.5-0.3     c0.5,0.3,0.6,1,0.3,1.5L11.6,41.8C11.4,42.1,11.1,42.3,10.7,42.3z"/></g><g><path d="M13.5,51.4c-0.6,0-1.2-0.2-1.8-0.6L1.3,43.6c-0.7-0.5-1.1-1.2-1.3-2c-0.1-0.8,0-1.6,0.5-2.3l1.3-1.8     c1-1.4,2.9-1.7,4.3-0.8l10.4,7.3c0.7,0.5,1.1,1.2,1.3,2c0.1,0.8,0,1.6-0.5,2.3L16,50.1C15.4,50.9,14.4,51.4,13.5,51.4z M4.4,38.3     c-0.3,0-0.5,0.1-0.7,0.4l-1.3,1.8c-0.1,0.2-0.2,0.4-0.1,0.7c0,0.2,0.2,0.4,0.4,0.6L13,49c0.4,0.3,0.9,0.2,1.2-0.2l1.3-1.8     c0.1-0.2,0.2-0.4,0.1-0.7c0-0.2-0.2-0.4-0.4-0.6L4.9,38.5C4.7,38.4,4.6,38.3,4.4,38.3z"/></g><g><path d="M27.2,31.7c-0.6,0-1.2-0.2-1.8-0.6L15,23.9c-1.4-1-1.7-2.9-0.8-4.3l1.3-1.8c0.5-0.7,1.2-1.1,2-1.3     c0.8-0.1,1.6,0,2.3,0.5l10.4,7.3c1.4,1,1.7,2.9,0.8,4.3l-1.3,1.8C29.1,31.3,28.2,31.7,27.2,31.7z M18.1,18.7c-0.1,0-0.1,0-0.2,0     c-0.2,0-0.4,0.2-0.6,0.4l-1.3,1.8c-0.3,0.4-0.2,0.9,0.2,1.2l10.4,7.3c0.2,0.1,0.4,0.2,0.7,0.1c0.2,0,0.4-0.2,0.6-0.4l1.3-1.8     c0.3-0.4,0.2-0.9-0.2-1.2l-10.4-7.3C18.4,18.7,18.3,18.7,18.1,18.7z"/></g></g><g><g><path d="M89.3,42.3c-0.3,0-0.7-0.2-0.9-0.5L78.2,27.3c-0.3-0.5-0.2-1.2,0.3-1.5c0.5-0.3,1.2-0.2,1.5,0.3     l10.2,14.5c0.4,0.5,0.2,1.2-0.3,1.5C89.7,42.2,89.5,42.3,89.3,42.3z"/></g><g><path d="M86.5,51.4c-1,0-1.9-0.5-2.5-1.3v0l-1.3-1.8c-0.5-0.7-0.7-1.5-0.5-2.3c0.1-0.8,0.6-1.5,1.3-2l10.4-7.3     c1.4-1,3.3-0.6,4.3,0.8l1.3,1.8c1,1.4,0.6,3.3-0.8,4.3l-10.4,7.3C87.8,51.2,87.1,51.4,86.5,51.4z M85.8,48.8     c0.3,0.4,0.8,0.5,1.2,0.2l10.4-7.3c0.4-0.3,0.5-0.8,0.2-1.2l-1.3-1.8c-0.3-0.4-0.8-0.5-1.2-0.2l-10.4,7.3     c-0.2,0.1-0.3,0.3-0.4,0.6c0,0.2,0,0.5,0.1,0.7L85.8,48.8z"/></g><g><path d="M72.8,31.7c-1,0-1.9-0.5-2.5-1.3L69,28.6c-1-1.4-0.6-3.3,0.8-4.3L80.1,17c0.7-0.5,1.5-0.7,2.3-0.5     c0.8,0.1,1.5,0.6,2,1.3l1.3,1.8c1,1.4,0.6,3.3-0.8,4.3l-10.4,7.3C74,31.6,73.4,31.7,72.8,31.7z M81.9,18.7     c-0.2,0-0.3,0.1-0.5,0.2L71,26.1c-0.4,0.3-0.5,0.8-0.2,1.2l1.3,1.8c0.1,0.2,0.3,0.3,0.6,0.4c0.2,0,0.5,0,0.7-0.1l10.4-7.3     c0.4-0.3,0.5-0.8,0.2-1.2l-1.3-1.8c-0.1-0.2-0.3-0.3-0.6-0.4C82,18.7,82,18.7,81.9,18.7z"/></g></g></g><text x="0" y="115" fill="#000000" font-size="5px" font-weight="bold" font-family="'Helvetica Neue', Helvetica, Arial-Unicode, Arial, Sans-serif">Created by N.Style</text><text x="0" y="120" fill="#000000" font-size="5px" font-weight="bold" font-family="'Helvetica Neue', Helvetica, Arial-Unicode, Arial, Sans-serif">from the Noun Project</text></svg>