<svg xmlns="http://www.w3.org/2000/svg" xmlns:xlink="http://www.w3.org/1999/xlink" version="1.1" x="0px" y="0px" viewBox="0 0 100 125" style="enable-background:new 0 0 100 100;" xml:space="preserve"><g><g><path d="M98.1,80.6c-0.1,0-0.1,0-0.2,0c-0.6-0.1-1.1-0.7-1-1.3c1.8-11.3,0.4-23.7-3.8-33.9    c-0.1-0.2-0.1-0.5,0-0.7c1.6-5.9,1.5-12-0.2-17.4c-1.8-5.7-5.6-10.6-10.4-13.5c-2.7-1.7-5.9-2.8-8.9-3.9C68.5,8,63.4,6.2,59.8,2    c-0.4-0.5-0.4-1.2,0.1-1.7c0.5-0.4,1.2-0.4,1.7,0.1c3.1,3.7,7.8,5.4,12.7,7.1c3.2,1.1,6.5,2.3,9.4,4.1c5.2,3.2,9.4,8.6,11.4,14.8    c1.8,5.7,2,12,0.4,18.3c4.2,10.5,5.6,23.1,3.8,34.7C99.1,80.2,98.6,80.6,98.1,80.6z"/></g><g><path d="M86.7,81.6c-0.4,0-0.8-0.2-1-0.6c-2.1-4.2-3.9-8.6-5.3-13.1c-0.2-0.6,0.2-1.3,0.8-1.5    c0.6-0.2,1.3,0.2,1.5,0.8c1.3,4.4,3.1,8.6,5.1,12.7c0.3,0.6,0.1,1.3-0.5,1.6C87.1,81.6,86.9,81.6,86.7,81.6z"/></g><g><path d="M78.7,99.9c-0.6,0-1-0.4-1.1-1c-0.2-1-4.5-25.1,0-40.7c0.1-0.3,7.5-22-3.4-33.6c-0.4-0.5-0.4-1.2,0.1-1.7    c0.5-0.4,1.2-0.4,1.7,0.1c11.9,12.7,4.3,35,3.9,35.9c-4.4,15.1,0,39.4,0,39.6c0.1,0.6-0.3,1.2-0.9,1.4    C78.8,99.9,78.7,99.9,78.7,99.9z"/></g><g><path d="M21.3,99.9c-0.1,0-0.1,0-0.2,0c-0.6-0.1-1.1-0.7-0.9-1.4c0-0.2,4.4-24.5,0-39.7    C19.9,58,12.3,35.7,24.2,23c0.4-0.5,1.2-0.5,1.7-0.1c0.5,0.4,0.5,1.2,0.1,1.7C15,36.3,22.4,58,22.5,58.2C27,73.9,22.7,98,22.5,99    C22.4,99.5,21.9,99.9,21.3,99.9z"/></g><g><path d="M1.9,80.6c-0.6,0-1.1-0.4-1.2-1C-1,68,0.3,55.4,4.6,44.9c-1.6-6.3-1.5-12.6,0.4-18.3    c2-6.2,6.2-11.6,11.4-14.8c2.9-1.8,6.2-3,9.4-4.1c4.9-1.8,9.6-3.4,12.7-7.1C38.8,0,39.5-0.1,40,0.3c0.5,0.4,0.6,1.2,0.1,1.7    c-3.5,4.2-8.7,6-13.7,7.8c-3.1,1.1-6.2,2.2-8.9,3.9C12.8,16.7,9,21.6,7.1,27.3c-1.7,5.3-1.8,11.5-0.2,17.4c0.1,0.2,0,0.5,0,0.7    C2.7,55.6,1.3,67.9,3.1,79.2c0.1,0.6-0.3,1.2-1,1.3C2.1,80.6,2,80.6,1.9,80.6z"/></g><g><path d="M13.3,81.6c-0.2,0-0.4,0-0.5-0.1c-0.6-0.3-0.8-1-0.5-1.6c2-3.9,3.6-8,5-12.1c0.2-0.6,0.9-1,1.5-0.8    c0.6,0.2,1,0.9,0.8,1.5c-1.3,4.3-3.1,8.5-5.1,12.5C14.1,81.4,13.7,81.6,13.3,81.6z"/></g><g><path d="M33.5,56c-2.4,0-4.8-0.3-7.1-1c-0.6-0.2-1-0.8-0.8-1.5c0.2-0.6,0.8-1,1.5-0.8c5.7,1.7,12.2,1,17.4-1.9    c0.6-0.3,1.3-0.1,1.6,0.4c0.3,0.6,0.1,1.3-0.4,1.6C42,54.9,37.7,56,33.5,56z"/></g><g><path d="M65.9,56c-4.3,0-8.5-1.1-12.2-3.1c-0.6-0.3-0.8-1-0.4-1.6c0.3-0.6,1-0.8,1.6-0.4    c5.2,2.9,11.7,3.7,17.4,1.9c0.6-0.2,1.3,0.2,1.5,0.8c0.2,0.6-0.2,1.3-0.8,1.5C70.7,55.7,68.3,56,65.9,56z"/></g><g><path d="M50,96c-0.6,0-1.2-0.5-1.2-1.2V63.5c0-0.6,0.5-1.2,1.2-1.2c0.6,0,1.2,0.5,1.2,1.2v31.4    C51.2,95.5,50.6,96,50,96z"/></g><g><path d="M58.8,71.6c-1.5,0-2.9-0.3-4.3-0.8c-0.6-0.2-0.9-0.9-0.7-1.5c0.2-0.6,0.9-0.9,1.5-0.7    c2.4,0.9,5.1,0.8,7.5-0.2c0.6-0.2,1.3,0,1.5,0.6c0.2,0.6,0,1.3-0.6,1.5C62.1,71.3,60.4,71.6,58.8,71.6z"/></g><g><path d="M58.8,79.6c-1.5,0-2.9-0.3-4.3-0.8c-0.6-0.2-0.9-0.9-0.7-1.5c0.2-0.6,0.9-0.9,1.5-0.7    c2.4,0.9,5.1,0.8,7.5-0.2c0.6-0.2,1.3,0,1.5,0.6c0.2,0.6,0,1.3-0.6,1.5C62.1,79.3,60.4,79.6,58.8,79.6z"/></g><g><path d="M58.8,87.6c-1.5,0-2.9-0.3-4.3-0.8c-0.6-0.2-0.9-0.9-0.7-1.5c0.2-0.6,0.9-0.9,1.5-0.7    c2.4,0.9,5.1,0.8,7.5-0.2c0.6-0.2,1.3,0,1.5,0.6c0.2,0.6,0,1.3-0.6,1.5C62.1,87.2,60.4,87.6,58.8,87.6z"/></g><g><path d="M41.4,71.6c-1.7,0-3.3-0.3-4.8-0.9c-0.6-0.2-0.9-0.9-0.6-1.5c0.2-0.6,0.9-0.9,1.5-0.6    c2.4,1,5.1,1,7.5,0.2c0.6-0.2,1.3,0.1,1.5,0.7c0.2,0.6-0.1,1.3-0.7,1.5C44.3,71.4,42.9,71.6,41.4,71.6z"/></g><g><path d="M41.4,79.6c-1.7,0-3.3-0.3-4.8-0.9c-0.6-0.2-0.9-0.9-0.6-1.5c0.2-0.6,0.9-0.9,1.5-0.6    c2.4,1,5.1,1,7.5,0.2c0.6-0.2,1.3,0.1,1.5,0.7c0.2,0.6-0.1,1.3-0.7,1.5C44.3,79.3,42.9,79.6,41.4,79.6z"/></g><g><path d="M41.4,87.6c-1.7,0-3.3-0.3-4.8-0.9c-0.6-0.2-0.9-0.9-0.6-1.5c0.2-0.6,0.9-0.9,1.5-0.6    c2.4,1,5.1,1,7.5,0.2c0.6-0.2,1.3,0.1,1.5,0.7s-0.1,1.3-0.7,1.5C44.3,87.3,42.9,87.6,41.4,87.6z"/></g></g><text x="0" y="115" fill="#000000" font-size="5px" font-weight="bold" font-family="'Helvetica Neue', Helvetica, Arial-Unicode, Arial, Sans-serif">Created by N.Style</text><text x="0" y="120" fill="#000000" font-size="5px" font-weight="bold" font-family="'Helvetica Neue', Helvetica, Arial-Unicode, Arial, Sans-serif">from the Noun Project</text></svg>