<svg xmlns="http://www.w3.org/2000/svg" viewBox="0 0 70 87.5" x="0px" y="0px"><path d="M52.8706,68.84a3.85,3.85,0,0,1-3.7954-3.2607L47.0107,52.0337a1.8589,1.8589,0,0,0-1.2451-1.4858l-9.0151-3.0572a8.0993,8.0993,0,0,1-5.4063-9.07l1.8526-10.8755-1.9063.53a2.7043,2.7043,0,0,0-1.7671,1.5435L26.17,37.4106a3.2387,3.2387,0,0,1-5.9751-2.5l3.8311-9.4233A9.0286,9.0286,0,0,1,28.8,20.5884l4.8164-2.104a9.898,9.898,0,0,1,5.2974-.7378l5.47.7417A9.9727,9.9727,0,0,1,49.97,21.2134l2.4141,2.3559a2.2081,2.2081,0,0,0,2.1533.5391l5.6963-1.6509A3.3748,3.3748,0,0,1,64.4478,24.88a3.3933,3.3933,0,0,1-2.1934,4.0161l-6.4385,2.1763a10.4573,10.4573,0,0,1-10.6811-2.4082l-1.8482,11.666,7.2368,2.3564a7.5254,7.5254,0,0,1,5.2071,6.7149l.9721,15.3559a3.817,3.817,0,0,1-3.499,4.0674C53.0918,68.835,52.981,68.84,52.8706,68.84ZM34.4473,25.16a1,1,0,0,1,.9858,1.1679L33.3159,38.7568a6.1071,6.1071,0,0,0,4.0772,6.8394l9.0146,3.0571a3.8545,3.8545,0,0,1,2.5806,3.0786l2.0644,13.5454A1.8492,1.8492,0,0,0,53.03,66.833a1.8291,1.8291,0,0,0,1.6762-1.9492l-.9721-15.356a5.5364,5.5364,0,0,0-3.83-4.9394L41.856,41.9678a1,1,0,0,1-.6783-1.107l2.2857-14.4282a1,1,0,0,1,1.6894-.5566l1.3262,1.3052a8.4687,8.4687,0,0,0,8.6963,1.997l6.4385-2.1762a1.3818,1.3818,0,0,0,.8935-1.6363,1.3749,1.3749,0,0,0-1.7168-.9873l-5.6963,1.6509a4.212,4.212,0,0,1-4.1064-1.0283l-2.4141-2.356A7.9631,7.9631,0,0,0,44.1152,20.47l-5.47-.7417a7.9008,7.9008,0,0,0-4.2275.5894l-4.8164,2.104A7.0368,7.0368,0,0,0,25.8784,26.24l-3.831,9.4234a1.2388,1.2388,0,0,0,2.2856.956l3.3535-7.792a4.6942,4.6942,0,0,1,3.0679-2.6792l3.4248-.9521A1.0084,1.0084,0,0,1,34.4473,25.16Z"/><path d="M19.416,64.855a3.8819,3.8819,0,0,1-1.6846-7.3892l9.0225-4.2866a4.8189,4.8189,0,0,0,2.68-3.54L32.72,30.3428a1,1,0,1,1,1.9717.3359L31.4053,49.9751a6.8218,6.8218,0,0,1-3.793,5.0107L18.59,59.2725a1.8843,1.8843,0,0,0,1.4488,3.4741l6.6552-2.4033a18.0142,18.0142,0,0,0,9.6026-8.149l2.87-5.1328a1,1,0,0,1,1.7461.9766l-2.87,5.1328a20.0127,20.0127,0,0,1-10.669,9.0532l-6.6552,2.4033A3.8291,3.8291,0,0,1,19.416,64.855Z"/><path d="M42.5938,15.16a7,7,0,1,1,7-7A7.0079,7.0079,0,0,1,42.5938,15.16Zm0-12a5,5,0,1,0,5,5A5.0058,5.0058,0,0,0,42.5938,3.16Z"/><path d="M30.1655,15.16H13.0225a1,1,0,0,1,0-2h17.143a1,1,0,0,1,0,2Z"/><path d="M17.88,22.9458H6.4512a1,1,0,0,1,0-2H17.88a1,1,0,0,1,0,2Z"/><path d="M14.0225,30.7314H6.4512a1,1,0,0,1,0-2h7.5713a1,1,0,0,1,0,2Z"/><text x="0" y="85" fill="#000000" font-size="5px" font-weight="bold" font-family="'Helvetica Neue', Helvetica, Arial-Unicode, Arial, Sans-serif">Created by Martin Königsmann</text><text x="0" y="90" fill="#000000" font-size="5px" font-weight="bold" font-family="'Helvetica Neue', Helvetica, Arial-Unicode, Arial, Sans-serif">from the Noun Project</text></svg>